<?xml version="1.0" standalone="no"?><!DOCTYPE svg PUBLIC "-//W3C//DTD SVG 1.1//EN" "http://www.w3.org/Graphics/SVG/1.1/DTD/svg11.dtd"><svg t="1739496103491" class="icon" viewBox="0 0 1024 1024" version="1.1" xmlns="http://www.w3.org/2000/svg" p-id="6860" data-spm-anchor-id="a313x.search_index.0.i5.66c63a81V4d6Wk" xmlns:xlink="http://www.w3.org/1999/xlink" width="48" height="48"><path d="M509.170273 1022.494826C224.270931 1017.738476-3.732832 786.302916 0.903104 506.521167 5.53904 223.90969 239.5635-4.334901 520.007526 1.565381c282.430856 5.900282 503.87206 229.087488 503.149577 514.287865-0.662277 282.55127-236.914393 511.21731-513.98683 506.64158z" fill="#13227a" p-id="6861" data-spm-anchor-id="a313x.search_index.0.i3.66c63a81V4d6Wk" class="selected"></path><path d="M513.746002 980.831609c-259.732832 0.060207-470.276576-209.881468-469.554092-468.349953 0.722484-258.167451 211.868297-467.386642 471.239887-466.904986 256.662277 0.481656 466.844779 211.567262 466.724365 468.711195-0.120414 256.842897-210.603951 466.483537-468.41016 466.543744z" fill="#FFFFFF" p-id="6862"></path><path d="M443.424271 765.170273c0 23.902164-0.60207 47.864534 0.301035 71.706491 0.421449 11.920978-3.793039 15.111947-15.111948 14.750705-21.975541-0.78269-44.071496-0.662277-66.047036-0.060207-10.355597 0.301035-14.449671-2.76952-14.329257-13.727187 0.481656-49.068674-0.120414-98.197554 0.481656-147.266227 0.361242-28.116651 21.072437-48.165569 47.74412-47.864535 26.370649 0.240828 46.299153 20.590781 46.901223 48.827846 0.421449 24.504233 0 49.068674 0.060207 73.633114z" fill="#FFFFFF" p-id="6863"></path><path d="M92.598307 512a419.823142 419.401693 90 1 0 838.803386 0 419.823142 419.401693 90 1 0-838.803386 0Z" fill="#f4ea2a" p-id="6864" data-spm-anchor-id="a313x.search_index.0.i2.66c63a81V4d6Wk" class=""></path><path d="M635.84572 143.05174L587.800564 311.87206c-8.730009 30.585136-16.316087 61.531515-26.611477 91.514582-7.104421 20.831609-4.094073 27.815616 19.62747 27.273753 59.725306-1.444967 119.450611-0.481656 186.159925-0.481656-125.531515 153.9492-247.450611 303.503293-369.369709 452.997178-2.408278-1.565381-4.816557-3.130762-7.224835-4.75635 23.540922-82.122295 47.021637-164.244591 70.622766-246.366886 9.151458-31.849483 9.151458-31.849483-23.661336-31.909689-57.85889-0.060207-115.657573 0-180.199436 0 127.096896-156.056444 250.64158-307.71778 374.246473-459.379116 1.38476 0.78269 2.950141 1.505174 4.455315 2.287864z" fill="#d81e06" p-id="6865" data-spm-anchor-id="a313x.search_index.0.i1.66c63a81V4d6Wk" class=""></path></svg>